<svg width="50" height="117" viewBox="0 0 50 117" fill="none" xmlns="http://www.w3.org/2000/svg">
<g clip-path="url(#clip0_1309_1968)">
<g filter="url(#filter0_d_1309_1968)">
<path d="M6.21341 37.707C6.21341 36.8691 6.21341 36.0956 6.15365 35.2577L5.9146 25.5892C5.37674 19.3369 6.75127 11.2798 10.8748 6.83228C14.4008 3.02933 19.9587 2.38477 25.397 2.38477H27.7277C33.166 2.38477 38.6641 2.96488 42.2499 6.83228C46.3734 11.2798 47.9272 19.3369 47.3894 25.6536L46.9711 35.3221C46.9113 36.1601 46.8515 36.9336 46.9113 37.7715L47.987 93.0109C47.987 100.037 42.728 110.092 36.2139 110.092H16.9108C10.3967 110.092 5.1377 100.037 5.1377 93.0109L6.21341 37.707Z" fill="#9EE011"/>
<path d="M8.60365 38.3515C8.60365 37.578 8.60365 36.7401 8.54389 35.9666L8.3646 26.6204C7.82675 20.5615 9.02199 12.8266 12.7272 8.50805C15.8946 4.83402 20.7353 4.25391 25.576 4.25391H27.6677C32.4487 4.25391 37.3491 4.83402 40.5165 8.50805C44.162 12.8266 45.5365 20.6259 45.0584 26.6848L44.6999 36.0311C44.6401 36.8045 44.6401 37.6425 44.6401 38.416L45.5963 91.7861C45.5963 98.5541 40.9349 108.287 35.1977 108.287H18.046C12.3089 108.287 7.64746 98.5541 7.64746 91.7861L8.60365 38.3515Z" fill="#9EE011"/>
<path d="M7.64756 36.9336V39.0607L3.16541 40.2209C3.16541 40.2209 2.38851 36.9336 7.64756 36.9336Z" fill="#9EE011"/>
<path d="M45.4775 36.9336V39.0607L49.9597 40.2209C49.9597 40.2209 50.7366 36.9336 45.4775 36.9336Z" fill="#9EE011"/>
<path d="M17.6279 4.25391C11.1138 6.05869 9.7393 9.86164 8.54406 12.2465C8.06597 13.2134 7.64763 14.567 7.28906 16.2429C11.1736 12.6333 14.6398 8.63696 17.6279 4.25391Z" fill="#F045EB"/>
<path d="M9.85961 65.1013C9.97913 65.1657 10.1584 65.1657 10.3377 65.2302L10.3377 52.79C10.3377 46.6022 7.58866 35.1289 7.58866 35.1289C7.58866 35.1289 7.0508 54.5948 7.58866 64.3923C8.3058 64.7145 9.08271 64.9079 9.85961 65.1013Z" fill="#45474A"/>
<path d="M7.64746 65.7451C8.30484 75.0269 10.3367 82.246 10.3367 82.246C10.3367 82.246 10.3367 74.3179 10.3367 66.4541C9.44032 66.1963 8.54389 65.9385 7.64746 65.7451Z" fill="#45474A"/>
<path d="M15.357 106.933C12.7275 103.839 10.5163 100.23 8.84297 96.2334C8.72344 97.8448 8.7832 99.5207 9.02225 101.132C9.85892 103.066 11.0542 104.613 12.847 105.837C13.863 106.546 14.9387 107.191 15.9546 107.707C15.7754 107.449 15.5363 107.191 15.357 106.933Z" fill="#F3482A"/>
<path d="M35.9756 4.25391C42.4299 6.05869 43.8642 9.86164 44.9996 12.2465C45.4777 13.2134 45.8961 14.567 46.2546 16.2429C42.4299 12.6333 38.9637 8.63696 35.9756 4.25391Z" fill="#F045EB"/>
<path d="M40.7559 26.2335C37.9471 25.2667 33.5845 24.3643 26.7716 24.3643C19.9588 24.3643 15.5961 25.2667 12.7873 26.2335C10.1578 27.1359 8.60399 29.972 9.08209 32.8081L11.8311 47.891C11.9507 48.4066 12.369 48.7934 12.8471 48.7934C19.899 48.7289 26.7716 48.2132 26.7716 48.2132C26.7716 48.2132 33.6442 48.7289 40.6962 48.7934C41.1743 48.7934 41.5926 48.4066 41.7121 47.891L44.4612 32.8725C44.999 29.972 43.3854 27.2004 40.7559 26.2335Z" fill="#45474A"/>
<path d="M37.7675 106.933C40.3971 103.839 42.6083 100.23 44.2816 96.2334C44.4011 97.8448 44.3414 99.5207 44.1023 101.132C43.2656 103.066 42.0704 104.613 40.2775 105.837C39.2616 106.546 38.1859 107.191 37.1699 107.707C37.3492 107.449 37.5883 107.191 37.7675 106.933Z" fill="#F3482A"/>
<path d="M43.7437 65.1013C43.6242 65.1657 43.4449 65.1657 43.2656 65.2302V52.79C43.2656 46.6022 46.0147 35.1289 46.0147 35.1289C46.0147 35.1289 46.5525 54.5948 46.0147 64.3923C45.2975 64.7145 44.4609 64.9079 43.7437 65.1013Z" fill="#45474A"/>
<path d="M45.9549 65.7451C45.2975 75.0269 43.2656 82.246 43.2656 82.246C43.2656 82.246 43.2656 74.3179 43.2656 66.4541C44.1621 66.1963 45.0585 65.9385 45.9549 65.7451Z" fill="#45474A"/>
<path d="M39.979 83.2129C39.979 83.2129 34.4809 86.2424 26.8313 86.2424C19.1818 86.2424 13.6837 83.2129 13.6837 83.2129C12.608 86.5646 12.1897 91.0121 12.0104 93.397C11.9506 94.4928 12.4885 95.4597 13.3849 95.9109C15.7156 97.1355 20.6161 99.2626 26.8313 99.2626C33.0466 99.2626 37.9471 97.1355 40.2778 95.9109C41.1742 95.4597 41.7121 94.4284 41.6523 93.397C41.4132 90.9477 41.0547 86.5002 39.979 83.2129Z" fill="#45474A"/>
</g>
</g>
<defs>
<filter id="filter0_d_1309_1968" x="0.125" y="0.384766" width="52.875" height="113.707" filterUnits="userSpaceOnUse" color-interpolation-filters="sRGB">
<feFlood flood-opacity="0" result="BackgroundImageFix"/>
<feColorMatrix in="SourceAlpha" type="matrix" values="0 0 0 0 0 0 0 0 0 0 0 0 0 0 0 0 0 0 127 0" result="hardAlpha"/>
<feOffset dy="1"/>
<feGaussianBlur stdDeviation="1.5"/>
<feComposite in2="hardAlpha" operator="out"/>
<feColorMatrix type="matrix" values="0 0 0 0 0.940104 0 0 0 0 0.271301 0 0 0 0 0.922858 0 0 0 1 0"/>
<feBlend mode="normal" in2="BackgroundImageFix" result="effect1_dropShadow_1309_1968"/>
<feBlend mode="normal" in="SourceGraphic" in2="effect1_dropShadow_1309_1968" result="shape"/>
</filter>
<clipPath id="clip0_1309_1968">
<rect width="50" height="116.667" fill="white"/>
</clipPath>
</defs>
</svg>
