<svg width="75" height="59" viewBox="0 0 75 59" fill="none" xmlns="http://www.w3.org/2000/svg">
<path d="M37.2521 16.8973L17.3852 28.5704L28.218 47.007L48.0848 35.3338L37.2521 16.8973Z" fill="#9EE011"/>
<path d="M27.1384 47.6359L30.0057 45.9512L19.1729 27.5147L16.3056 29.1994L27.1384 47.6359Z" fill="#9EE011"/>
<path d="M42.8898 26.4923L23.023 38.1655L23.7765 39.448L43.6434 27.7748L42.8898 26.4923Z" fill="#0A0A16"/>
<path d="M44.2227 28.7608L24.3559 40.434L25.5545 42.474L45.4214 30.8008L44.2227 28.7608Z" fill="#0A0A16"/>
<path d="M45.8194 31.4782L25.9525 43.1513L26.7061 44.4339L46.573 32.7607L45.8194 31.4782Z" fill="#0A0A16"/>
<path d="M46.4858 32.6124L26.619 44.2856L28.3499 47.2314L48.2167 35.5582L46.4858 32.6124Z" fill="#0A0A16"/>
<path d="M43.5563 27.6265L23.6894 39.2997L24.443 40.5823L44.3099 28.9091L43.5563 27.6265Z" fill="#0A0A16"/>
<path d="M41.5357 24.1877L21.6689 35.8609L22.4224 37.1434L42.2893 25.4702L41.5357 24.1877Z" fill="#0A0A16"/>
<path d="M42.2022 25.322L22.3353 36.9951L23.0889 38.2777L42.9558 26.6045L42.2022 25.322Z" fill="#0A0A16"/>
<path d="M45.1105 30.2718L25.2437 41.945L25.9973 43.2275L45.8641 31.5543L45.1105 30.2718Z" fill="#0A0A16"/>
<path d="M62.211 0L21.7684 23.7629L34.5534 45.522L74.996 21.7591L62.211 0Z" fill="white"/>
<path d="M33.8567 45.9314L35.5386 44.9431L22.7536 23.184L21.0716 24.1723L33.8567 45.9314Z" fill="#9EE011"/>
<path d="M62.211 0L21.7684 23.7629L22.5668 25.1216L63.0093 1.35869L62.211 0Z" fill="#9EE011"/>
<path d="M42.9304 11.3233L42.0014 11.8692L41.917 13.7519L42.8421 13.2084L42.9304 11.3233Z" fill="#0A0A16"/>
<path d="M44.5283 10.3844L43.5992 10.9303L43.5149 12.8131L44.4439 12.2672L44.5283 10.3844Z" fill="#0A0A16"/>
<path d="M46.1301 9.44325L45.201 9.98915L45.1127 11.8742L46.0418 11.3283L46.1301 9.44325Z" fill="#0A0A16"/>
<path d="M47.7279 8.50441L46.7989 9.0503L46.7145 10.933L47.6436 10.3871L47.7279 8.50441Z" fill="#0A0A16"/>
<path d="M49.3298 7.56322L48.4007 8.10911L48.3124 9.99418L49.2414 9.44828L49.3298 7.56322Z" fill="#0A0A16"/>
<path d="M50.9276 6.62437L49.9986 7.17026L49.9142 9.05298L50.8433 8.50708L50.9276 6.62437Z" fill="#0A0A16"/>
<path d="M52.5295 5.68317L51.6004 6.22906L51.5121 8.11413L52.4411 7.56823L52.5295 5.68317Z" fill="#0A0A16"/>
<path d="M54.1273 4.74433L53.1982 5.29023L53.1139 7.17294L54.043 6.62705L54.1273 4.74433Z" fill="#0A0A16"/>
<path d="M55.7252 3.80548L54.7961 4.35138L54.7118 6.23409L55.6408 5.68819L55.7252 3.80548Z" fill="#0A0A16"/>
<path d="M57.327 2.86429L56.3979 3.41018L56.3096 5.29525L57.2387 4.74935L57.327 2.86429Z" fill="#0A0A16"/>
<path d="M58.9248 1.92544L57.9958 2.47133L57.9114 4.35405L58.8405 3.80815L58.9248 1.92544Z" fill="#0A0A16"/>
<path d="M60.5267 0.984251L59.5976 1.53014L59.5093 3.41521L60.4383 2.86932L60.5267 0.984251Z" fill="#0A0A16"/>
<path d="M62.1245 0.0454032L61.1954 0.591299L61.1111 2.47401L62.0402 1.92812L62.1245 0.0454032Z" fill="#0A0A16"/>
<path d="M74.2017 20.3981L33.7591 44.1609L34.5575 45.5196L75 21.7568L74.2017 20.3981Z" fill="#9EE011"/>
<path d="M13.9101 57.9641C12.9811 58.51 11.7108 58.081 11.082 57.0109L0.348172 38.7427C-0.2806 37.6726 -0.0331052 36.3517 0.891959 35.8082L17.2388 26.2033L30.2569 48.3592L13.9101 57.9641Z" fill="#9EE011"/>
<path d="M54.9171 31.7237L53.9881 32.2696L53.9037 34.1523L54.8288 33.6088L54.9171 31.7237Z" fill="#0A0A16"/>
<path d="M56.515 30.7849L55.5859 31.3308L55.5016 33.2135L56.4306 32.6676L56.515 30.7849Z" fill="#0A0A16"/>
<path d="M58.1168 29.8437L57.1877 30.3896L57.0994 32.2746L58.0285 31.7287L58.1168 29.8437Z" fill="#0A0A16"/>
<path d="M59.7146 28.9048L58.7856 29.4507L58.7012 31.3334L59.6303 30.7875L59.7146 28.9048Z" fill="#0A0A16"/>
<path d="M61.3165 27.9636L60.3874 28.5095L60.2991 30.3946L61.2282 29.8487L61.3165 27.9636Z" fill="#0A0A16"/>
<path d="M62.9143 27.0248L61.9853 27.5707L61.9009 29.4534L62.83 28.9075L62.9143 27.0248Z" fill="#0A0A16"/>
<path d="M64.5162 26.0836L63.5871 26.6295L63.4988 28.5146L64.4278 27.9687L64.5162 26.0836Z" fill="#0A0A16"/>
<path d="M66.114 25.1448L65.1849 25.6906L65.1006 27.5734L66.0297 27.0275L66.114 25.1448Z" fill="#0A0A16"/>
<path d="M67.7118 24.2059L66.7828 24.7518L66.6984 26.6345L67.6275 26.0886L67.7118 24.2059Z" fill="#0A0A16"/>
<path d="M69.3137 23.2647L68.3846 23.8106L68.2963 25.6957L69.2254 25.1498L69.3137 23.2647Z" fill="#0A0A16"/>
<path d="M70.9115 22.3259L69.9825 22.8718L69.8981 24.7545L70.8272 24.2086L70.9115 22.3259Z" fill="#0A0A16"/>
<path d="M72.5134 21.3847L71.5843 21.9306L71.496 23.8156L72.425 23.2697L72.5134 21.3847Z" fill="#0A0A16"/>
<path d="M74.1112 20.4458L73.1821 20.9917L73.0978 22.8744L74.0269 22.3285L74.1112 20.4458Z" fill="#0A0A16"/>
<path d="M13.2778 56.8421C12.3528 57.3857 11.0865 56.9543 10.4577 55.8842L1.02381 39.8284C0.395041 38.7583 0.638532 37.4398 1.55959 36.8986L16.9853 27.8349L28.7036 47.7784L13.2778 56.8421Z" fill="#9EE011"/>
<path d="M13.3829 54.8664L3.226 37.5801L8.88485 35.3011L18.2693 51.2728L13.3829 54.8664Z" fill="#161628"/>
<path d="M13.1345 53.8477L3.99497 38.2929L6.72086 37.1927L15.4883 52.1142L13.1345 53.8477Z" fill="#BFBFBF"/>
<path d="M17.531 50.6121L15.4883 52.1142L6.72086 37.1927L9.08612 36.2396L17.531 50.6121Z" fill="#A0A0A0"/>
<path d="M3.48591 36.8397L16.3527 29.2796L16.8661 30.1533L9.20127 34.6569L3.48591 36.8397Z" fill="#0A0A16"/>
<path d="M14.3187 55.2762L27.1855 47.7161L26.6721 46.8424L19.0073 51.346L14.3187 55.2762Z" fill="#0A0A16"/>
<path d="M20.7716 43.3649C20.4231 42.7716 19.66 42.5731 19.0673 42.9213C18.4745 43.2696 18.2766 44.0328 18.6252 44.6261L20.3254 47.5198C20.674 48.113 21.4371 48.3116 22.0298 47.9633C22.6225 47.6151 22.8205 46.8518 22.4719 46.2586L20.7716 43.3649Z" fill="black"/>
<path d="M15.4502 34.3173C15.1016 33.7241 14.3385 33.5255 13.7458 33.8738C13.1531 34.222 12.9551 34.9853 13.3037 35.5785L15.2724 38.9291C15.621 39.5224 16.384 39.7209 16.9768 39.3727C17.5695 39.0244 17.7675 38.2612 17.4189 37.6679L15.4502 34.3173Z" fill="black"/>
<path d="M19.1073 42.8978C18.9471 42.9919 18.8943 43.1955 18.9885 43.3558L21.612 47.8206C21.7062 47.981 21.9097 48.0339 22.0698 47.9398C22.23 47.8457 22.2828 47.6421 22.1886 47.4818L19.5652 43.017C19.471 42.8567 19.2675 42.8037 19.1073 42.8978Z" fill="#9EE011"/>
<path d="M13.7898 33.8479C13.6297 33.942 13.5769 34.1455 13.6711 34.3059L16.5606 39.2236C16.6548 39.3839 16.8583 39.4369 17.0185 39.3428C17.1787 39.2486 17.2314 39.0451 17.1372 38.8848L14.2477 33.967C14.1535 33.8067 13.95 33.7538 13.7898 33.8479Z" fill="#9EE011"/>
<path d="M18.1247 38.8599C17.7761 38.2667 17.013 38.0681 16.4203 38.4164C15.8276 38.7647 15.6296 39.5279 15.9782 40.1211L17.9469 43.4718C18.2955 44.065 19.0586 44.2636 19.6513 43.9153C20.244 43.567 20.442 42.8038 20.0934 42.2106L18.1247 38.8599Z" fill="black"/>
<path d="M3.40515 31.0911C3.09279 31.2747 2.99122 31.6794 3.17255 31.988L5.1248 35.3106C5.30849 35.6232 5.71315 35.7252 6.0215 35.544C6.33386 35.3604 6.43544 34.9557 6.2541 34.6471L4.30185 31.3245C4.11816 31.0119 3.71351 30.91 3.40515 31.0911Z" fill="#161628"/>
<path d="M16.5905 53.5316C16.2782 53.7151 16.1766 54.1199 16.3579 54.4285L18.3102 57.7511C18.4939 58.0637 18.8985 58.1656 19.2069 57.9844C19.5192 57.8009 19.6208 57.3962 19.4395 57.0875L17.4872 53.765C17.3035 53.4523 16.8989 53.3504 16.5905 53.5316Z" fill="#161628"/>
<path d="M2.43498 41.625C2.16667 41.7826 2.07194 42.1348 2.23207 42.4074L8.80238 53.5895C8.96016 53.858 9.31229 53.9531 9.58461 53.7931C9.85292 53.6354 9.94765 53.2832 9.78751 53.0107L3.21721 41.8285C3.05942 41.56 2.70729 41.465 2.43498 41.625Z" fill="#0A0A16"/>
<path d="M24.3936 34.8045C24.1173 34.9668 24.0845 35.4336 24.3223 35.8384L25.0924 37.149C25.3302 37.5538 25.7539 37.7524 26.0303 37.59L40.7464 27.9512L39.9763 26.6406L24.3936 34.8045Z" fill="#0A0A16"/>
<path d="M65.6748 12.1664C66.8421 14.1439 66.835 15.9381 65.9206 17.7101C65.3783 18.7674 64.395 19.3128 63.2684 19.5866C61.9229 19.9188 60.5867 19.6526 59.262 19.4335C57.8951 19.2068 56.5817 19.3369 55.3024 19.846C55.1017 19.9262 54.9081 20.0184 54.7097 20.1026C54.2419 20.2966 54.2299 20.3037 54.4875 20.7238C54.9218 21.4445 54.8757 22.1455 54.3982 22.8089C53.9763 23.4019 53.5298 23.9715 53.0747 24.5355C52.3964 25.3708 51.7071 26.1963 51.0114 27.0202C50.3077 27.8489 49.7147 28.7742 48.8916 29.5004C48.2966 30.028 47.5953 30.4023 46.8912 30.7351C45.9935 31.1602 45.0183 31.3342 44.0231 31.245C42.3178 31.0932 40.8462 30.459 39.6962 29.1344C38.3269 27.5558 37.8282 25.7353 38.196 23.7022C38.4833 22.11 39.3404 20.8732 40.6313 19.8612C41.7899 18.9541 43.1109 18.5984 44.4954 18.351C46.6062 17.9734 48.7208 17.6206 50.8261 17.2247C51.5253 17.0942 52.5944 17.3826 52.9342 18.1535C53.1364 18.6169 53.1829 18.5951 53.6297 18.3379C55.0144 17.5405 56.4875 17.0038 58.0952 16.9434C58.9281 16.9123 59.76 16.9896 60.591 16.992C61.1679 16.9927 61.7393 16.975 62.3143 16.8259C62.8071 16.6927 63.0832 16.3741 63.2342 15.9619C63.8216 14.4036 63.0575 12.6905 61.6401 12.0569C60.8885 11.7221 60.1437 11.8847 59.4134 12.1089C58.7464 12.3122 58.1096 12.5946 57.63 13.1353C57.5431 13.2349 57.3899 13.341 57.2507 13.2233C57.1337 13.1249 57.1342 12.9791 57.2159 12.834C57.6567 11.9981 58.2549 11.3016 58.9932 10.706C59.7178 10.1239 60.522 9.8239 61.4244 9.77354C62.518 9.71863 63.4917 10.0739 64.3535 10.7429C64.9383 11.1972 65.4861 11.6895 65.6684 12.1647L65.6748 12.1664ZM41.2555 26.8648C41.7521 28.1959 43.8435 28.4821 44.9102 27.877C46.1049 27.1965 46.7353 25.2896 45.9574 24.0482C45.1638 22.7892 43.4383 22.218 42.0536 23.107C40.753 23.9467 40.4007 25.41 41.2555 26.8648ZM51.7523 20.6163C51.3188 19.7227 50.1651 19.4462 49.3185 19.949C48.4422 20.4747 48.0716 21.4851 48.7482 22.5541C49.2613 23.3632 50.4183 23.5353 51.1474 23.0799C51.9565 22.5775 52.3691 21.5102 51.75 20.6123L51.7523 20.6163Z" fill="#0A0A16"/>
</svg>
