<svg width="118" height="126" viewBox="0 0 118 126" fill="none" xmlns="http://www.w3.org/2000/svg">
<path d="M73.2565 70.6505L73.0221 39.9281L44.5116 40.1457L44.746 70.8681L73.2565 70.6505Z" fill="#9EE011"/>
<path d="M44.505 38.4798L44.5389 42.9138L73.0494 42.6963L73.0156 38.2622L44.505 38.4798Z" fill="#9EE011"/>
<path d="M58.4187 70.7638L58.1842 40.0414L56.2009 40.0565L56.4353 70.7789L58.4187 70.7638Z" fill="#0A0A16"/>
<path d="M54.9107 70.7906L54.6762 40.0681L51.5214 40.0922L51.7559 70.8146L54.9107 70.7906Z" fill="#0A0A16"/>
<path d="M50.7084 70.8226L50.474 40.1002L48.4906 40.1154L48.7251 70.8378L50.7084 70.8226Z" fill="#0A0A16"/>
<path d="M48.9544 70.836L48.72 40.1136L44.1645 40.1484L44.3989 70.8708L48.9544 70.836Z" fill="#0A0A16"/>
<path d="M56.6647 70.7772L56.4302 40.0548L54.4469 40.0699L54.6813 70.7923L56.6647 70.7772Z" fill="#0A0A16"/>
<path d="M61.9825 70.7366L61.748 40.0142L59.7647 40.0293L59.9992 70.7517L61.9825 70.7366Z" fill="#0A0A16"/>
<path d="M60.2285 70.75L59.994 40.0276L58.0107 40.0427L58.2451 70.7651L60.2285 70.75Z" fill="#0A0A16"/>
<path d="M52.574 70.8084L52.3396 40.086L50.3562 40.1011L50.5907 70.8235L52.574 70.8084Z" fill="#0A0A16"/>
<path d="M76.1286 110.735L75.6513 48.1945L42.0027 48.4513L42.48 110.992L76.1286 110.735Z" fill="white"/>
<path d="M41.9944 47.3738L42.0143 49.9747L75.6629 49.7179L75.6431 47.117L41.9944 47.3738Z" fill="#9EE011"/>
<path d="M76.1286 110.735L75.6513 48.1945L73.5502 48.2105L74.0275 110.751L76.1286 110.735Z" fill="#9EE011"/>
<path d="M75.9072 80.9233L75.8963 79.4866L73.7785 78.1341L73.7895 79.5646L75.9072 80.9233Z" fill="#0A0A16"/>
<path d="M75.9261 83.3942L75.9151 81.9575L73.7974 80.605L73.8084 82.0417L75.9261 83.3942Z" fill="#0A0A16"/>
<path d="M75.945 85.8713L75.934 84.4346L73.8162 83.0759L73.8272 84.5126L75.945 85.8713Z" fill="#0A0A16"/>
<path d="M75.9639 88.3423L75.9529 86.9055L73.8352 85.553L73.8461 86.9897L75.9639 88.3423Z" fill="#0A0A16"/>
<path d="M75.9828 90.8194L75.9718 89.3827L73.854 88.0239L73.865 89.4607L75.9828 90.8194Z" fill="#0A0A16"/>
<path d="M76.0016 93.2903L75.9907 91.8536L73.8729 90.5011L73.8839 91.9378L76.0016 93.2903Z" fill="#0A0A16"/>
<path d="M76.0205 95.7674L76.0096 94.3307L73.8918 92.972L73.9027 94.4087L76.0205 95.7674Z" fill="#0A0A16"/>
<path d="M76.0394 98.2383L76.0284 96.8016L73.9107 95.4491L73.9216 96.8858L76.0394 98.2383Z" fill="#0A0A16"/>
<path d="M76.0582 100.709L76.0473 99.2725L73.9295 97.92L73.9405 99.3567L76.0582 100.709Z" fill="#0A0A16"/>
<path d="M76.0771 103.186L76.0662 101.75L73.9484 100.391L73.9594 101.828L76.0771 103.186Z" fill="#0A0A16"/>
<path d="M76.096 105.657L76.085 104.221L73.9673 102.868L73.9783 104.305L76.096 105.657Z" fill="#0A0A16"/>
<path d="M76.1149 108.134L76.1039 106.698L73.9862 105.339L73.9971 106.776L76.1149 108.134Z" fill="#0A0A16"/>
<path d="M76.1338 110.605L76.1228 109.169L74.0051 107.816L74.016 109.253L76.1338 110.605Z" fill="#0A0A16"/>
<path d="M44.5811 110.982L44.1038 48.4415L42.0027 48.4575L42.48 110.998L44.5811 110.982Z" fill="#9EE011"/>
<path d="M41.3979 16.3197C41.387 14.883 42.7292 13.7022 44.384 13.6896L72.6342 13.474C74.2891 13.4613 75.6492 14.6277 75.6601 16.0582L75.8531 41.3371L41.5909 41.5986L41.3979 16.3197Z" fill="#9EE011"/>
<path d="M44.3597 81.1641L44.3488 79.7274L42.231 78.3748L42.2419 79.8054L44.3597 81.1641Z" fill="#0A0A16"/>
<path d="M44.3786 83.635L44.3676 82.1983L42.2499 80.8458L42.2608 82.2825L44.3786 83.635Z" fill="#0A0A16"/>
<path d="M44.3975 86.1121L44.3865 84.6754L42.2687 83.3167L42.2797 84.7534L44.3975 86.1121Z" fill="#0A0A16"/>
<path d="M44.4164 88.583L44.4054 87.1463L42.2876 85.7938L42.2986 87.2305L44.4164 88.583Z" fill="#0A0A16"/>
<path d="M44.4353 91.0602L44.4243 89.6234L42.3065 88.2647L42.3175 89.7014L44.4353 91.0602Z" fill="#0A0A16"/>
<path d="M44.4541 93.5311L44.4432 92.0943L42.3254 90.7418L42.3364 92.1786L44.4541 93.5311Z" fill="#0A0A16"/>
<path d="M44.473 96.0082L44.4621 94.5715L42.3443 93.2127L42.3552 94.6495L44.473 96.0082Z" fill="#0A0A16"/>
<path d="M44.4919 98.4791L44.4809 97.0424L42.3632 95.6899L42.3741 97.1266L44.4919 98.4791Z" fill="#0A0A16"/>
<path d="M44.5107 100.95L44.4998 99.5133L42.382 98.1608L42.393 99.5975L44.5107 100.95Z" fill="#0A0A16"/>
<path d="M44.5296 103.427L44.5187 101.99L42.4009 100.632L42.4118 102.068L44.5296 103.427Z" fill="#0A0A16"/>
<path d="M44.5485 105.898L44.5375 104.461L42.4198 103.109L42.4308 104.546L44.5485 105.898Z" fill="#0A0A16"/>
<path d="M44.5674 108.375L44.5564 106.938L42.4386 105.58L42.4496 107.016L44.5674 108.375Z" fill="#0A0A16"/>
<path d="M44.5863 110.846L44.5753 109.409L42.4575 108.057L42.4685 109.494L44.5863 110.846Z" fill="#0A0A16"/>
<path d="M43.115 16.3375C43.1041 14.907 44.4463 13.7325 46.1012 13.7198L70.9301 13.5303C72.585 13.5177 73.9451 14.6778 73.9559 16.1022L74.138 39.9568L43.2971 40.1921L43.115 16.3375Z" fill="#9EE011"/>
<path d="M45.3264 17.7761L72.0581 17.572L70.9171 25.6256L46.2183 25.8141L45.3264 17.7761Z" fill="#161628"/>
<path d="M46.6682 18.1684L70.7224 17.9848L70.1756 21.8659L47.1007 22.042L46.6682 18.1684Z" fill="#BFBFBF"/>
<path d="M47.4734 25.402L47.1007 22.042L70.1756 21.8659L69.6992 25.2324L47.4734 25.402Z" fill="#A0A0A0"/>
<path d="M72.7398 18.3658L72.8916 38.2632L71.5405 38.2735L71.45 26.4205L72.7398 18.3658Z" fill="#0A0A16"/>
<path d="M44.2292 18.5833L44.3811 38.4808L45.7322 38.4704L45.6418 26.6175L44.2292 18.5833Z" fill="#0A0A16"/>
<path d="M53.6813 33.9755C54.5987 33.9685 55.3367 33.2197 55.3297 32.3031C55.3227 31.3865 54.5734 30.6491 53.656 30.6561L49.1811 30.6903C48.2637 30.6973 47.5257 31.446 47.5327 32.3626C47.5397 33.2793 48.2891 34.0166 49.2064 34.0096L53.6813 33.9755Z" fill="black"/>
<path d="M67.6762 33.8625C68.5936 33.8555 69.3316 33.1068 69.3246 32.1902C69.3176 31.2735 68.5683 30.5362 67.6509 30.5432L62.4694 30.5827C61.5521 30.5897 60.8141 31.3384 60.821 32.255C60.828 33.1717 61.5774 33.909 62.4948 33.902L67.6762 33.8625Z" fill="black"/>
<path d="M55.3302 32.3651C55.3283 32.1174 55.1285 31.9207 54.8805 31.9226L47.976 31.9753C47.7281 31.9772 47.5313 32.1769 47.5332 32.4246C47.5351 32.6723 47.7349 32.869 47.9828 32.8671L54.8874 32.8144C55.1353 32.8125 55.3321 32.6128 55.3302 32.3651Z" fill="#9EE011"/>
<path d="M69.3252 32.2583C69.3233 32.0106 69.1234 31.8139 68.8755 31.8158L61.2706 31.8738C61.0227 31.8757 60.8259 32.0754 60.8278 32.3231C60.8297 32.5708 61.0295 32.7675 61.2774 32.7656L68.8823 32.7076C69.1302 32.7057 69.327 32.506 69.3252 32.2583Z" fill="#9EE011"/>
<path d="M60.6478 33.9223C61.5652 33.9153 62.3032 33.1666 62.2962 32.25C62.2892 31.3334 61.5399 30.596 60.6225 30.603L55.441 30.6425C54.5237 30.6495 53.7856 31.3983 53.7926 32.3149C53.7996 33.2315 54.549 33.9689 55.4664 33.9619L60.6478 33.9223Z" fill="black"/>
<path d="M79.4315 22.1049C79.4278 21.6219 79.0281 21.2347 78.5509 21.2384L73.4128 21.2776C72.9294 21.2813 72.5419 21.6806 72.5456 22.1574C72.5492 22.6405 72.9489 23.0276 73.4261 23.024L78.5642 22.9847C79.0477 22.9811 79.4351 22.5817 79.4315 22.1049Z" fill="#161628"/>
<path d="M44.7292 22.3697C44.7255 21.8867 44.3259 21.4996 43.8486 21.5032L38.7105 21.5424C38.2271 21.5461 37.8397 21.9454 37.8433 22.4223C37.847 22.9053 38.2466 23.2924 38.7239 23.2888L43.862 23.2496C44.3454 23.2459 44.7329 22.8466 44.7292 22.3697Z" fill="#161628"/>
<path d="M67.9149 13.9621C67.9117 13.5472 67.5682 13.203 67.1467 13.2062L49.8545 13.3382C49.4392 13.3413 49.0947 13.6846 49.0979 14.1057C49.1011 14.5206 49.4446 14.8648 49.8661 14.8616L67.1583 14.7296C67.5736 14.7265 67.9181 14.3832 67.9149 13.9621Z" fill="#0A0A16"/>
<path d="M61.1514 43.8647C61.1481 43.4374 60.631 43.0883 60.005 43.0931L57.9783 43.1086C57.3523 43.1133 56.8406 43.4702 56.8438 43.8975L58.163 67.3161L60.1898 67.3007L61.1514 43.8647Z" fill="#0A0A16"/>
<path d="M59.7709 106.624C56.7091 106.654 54.6421 105.449 53.2056 103.212C52.3463 101.881 52.372 100.382 52.807 98.8987C53.3203 97.1236 54.5186 95.7581 55.6547 94.3746C56.8277 92.9474 57.553 91.344 57.8181 89.5274C57.8593 89.2422 57.8819 88.9571 57.9169 88.672C58.0048 88.0025 58.0047 87.9839 57.3478 88.0013C56.226 88.0222 55.4473 87.5018 54.9996 86.5081C54.5962 85.6255 54.236 84.7303 53.8883 83.8287C53.376 82.4887 52.8822 81.1424 52.3946 79.7898C51.907 78.4249 51.2338 77.1232 50.9439 75.6886C50.7315 74.6498 50.7668 73.5905 50.8518 72.5556C50.9595 71.2356 51.4087 69.9936 52.1752 68.9039C53.4874 67.036 55.2008 65.7595 57.4969 65.3147C60.2326 64.7859 62.6672 65.4238 64.7696 67.2038C66.4165 68.5971 67.2734 70.4113 67.5812 72.5766C67.8564 74.5191 67.3863 76.2816 66.749 78.0453C65.7778 80.7343 64.7755 83.4112 63.8291 86.1063C63.5136 87.0005 62.4679 88.0427 61.3513 87.9212C60.6813 87.8458 60.6756 87.914 60.6746 88.6014C60.6723 90.7319 60.3099 92.7907 59.3079 94.6873C58.7885 95.6698 58.1446 96.5789 57.5879 97.5369C57.2025 98.2025 56.8419 98.8741 56.6308 99.6375C56.4561 100.295 56.6399 100.826 57.0152 101.276C58.4229 102.993 60.9104 103.253 62.5871 102.038C63.4747 101.394 63.7834 100.425 64.0114 99.4325C64.2214 98.5267 64.3198 97.6032 64.0153 96.6889C63.9582 96.5222 63.9377 96.2746 64.1664 96.1923C64.358 96.1227 64.5261 96.2205 64.6392 96.4117C65.3105 97.478 65.716 98.633 65.9115 99.8825C66.1006 101.107 65.9109 102.236 65.3674 103.311C64.7017 104.611 63.6424 105.498 62.2954 106.048C61.3809 106.42 60.4472 106.724 59.777 106.618L59.7709 106.624ZM59.078 68.6283C57.2099 68.3143 55.4852 70.5384 55.4729 72.1735C55.462 74.0068 57.2438 76.006 59.1958 75.9353C61.1786 75.8583 62.9886 74.2466 62.8851 72.055C62.7826 69.9935 61.3279 68.6111 59.078 68.6283ZM59.2953 84.9146C60.6162 85.0098 61.7046 83.862 61.6884 82.5492C61.6656 81.1868 60.746 80.0853 59.0606 80.1539C57.7841 80.207 56.8141 81.4282 56.8539 82.5737C56.8945 83.8429 57.852 85.0309 59.3015 84.9146L59.2953 84.9146Z" fill="#0A0A16"/>
</svg>
