<svg width="100" height="78" viewBox="0 0 100 78" fill="none" xmlns="http://www.w3.org/2000/svg">
<path d="M49.6694 22.5297L23.1803 38.0939L37.624 62.676L64.1131 47.1117L49.6694 22.5297Z" fill="#9EE011"/>
<path d="M36.1845 63.5146L40.0076 61.2682L25.5639 36.6862L21.7408 38.9325L36.1845 63.5146Z" fill="#9EE011"/>
<path d="M57.1864 35.323L30.6973 50.8873L31.7021 52.5973L58.1912 37.0331L57.1864 35.323Z" fill="#0A0A16"/>
<path d="M58.9636 38.3477L32.4745 53.9119L34.0727 56.632L60.5619 41.0677L58.9636 38.3477Z" fill="#0A0A16"/>
<path d="M61.0925 41.9709L34.6034 57.5351L35.6081 59.2452L62.0973 43.6809L61.0925 41.9709Z" fill="#0A0A16"/>
<path d="M61.9811 43.4832L35.492 59.0474L37.7998 62.9752L64.289 47.411L61.9811 43.4832Z" fill="#0A0A16"/>
<path d="M58.075 36.8354L31.5859 52.3996L32.5907 54.1097L59.0798 38.5454L58.075 36.8354Z" fill="#0A0A16"/>
<path d="M55.381 32.2503L28.8918 47.8145L29.8966 49.5246L56.3858 33.9603L55.381 32.2503Z" fill="#0A0A16"/>
<path d="M56.2696 33.7626L29.7804 49.3269L30.7852 51.0369L57.2744 35.4727L56.2696 33.7626Z" fill="#0A0A16"/>
<path d="M60.1474 40.3623L33.6582 55.9266L34.663 57.6367L61.1522 42.0724L60.1474 40.3623Z" fill="#0A0A16"/>
<path d="M82.948 0L29.0246 31.6838L46.0713 60.696L99.9946 29.0121L82.948 0Z" fill="white"/>
<path d="M45.1422 61.2419L47.3848 59.9242L30.3381 30.912L28.0955 32.2297L45.1422 61.2419Z" fill="#9EE011"/>
<path d="M82.948 0L29.0246 31.6838L30.089 33.4954L84.0124 1.81159L82.948 0Z" fill="#9EE011"/>
<path d="M57.2406 15.0977L56.0018 15.8256L55.8894 18.3359L57.1228 17.6111L57.2406 15.0977Z" fill="#0A0A16"/>
<path d="M59.371 13.8459L58.1323 14.5738L58.0198 17.0841L59.2586 16.3562L59.371 13.8459Z" fill="#0A0A16"/>
<path d="M61.5068 12.591L60.268 13.3189L60.1503 15.8323L61.389 15.1044L61.5068 12.591Z" fill="#0A0A16"/>
<path d="M63.6373 11.3392L62.3985 12.0671L62.2861 14.5774L63.5248 13.8495L63.6373 11.3392Z" fill="#0A0A16"/>
<path d="M65.773 10.0843L64.5343 10.8121L64.4165 13.3256L65.6553 12.5977L65.773 10.0843Z" fill="#0A0A16"/>
<path d="M67.9035 8.83249L66.6647 9.56035L66.5523 12.0706L67.7911 11.3428L67.9035 8.83249Z" fill="#0A0A16"/>
<path d="M70.0393 7.57756L68.8005 8.30541L68.6828 10.8188L69.9215 10.091L70.0393 7.57756Z" fill="#0A0A16"/>
<path d="M72.1697 6.32578L70.931 7.05364L70.8185 9.56392L72.0573 8.83606L72.1697 6.32578Z" fill="#0A0A16"/>
<path d="M74.3002 5.07397L73.0614 5.80183L72.949 8.31212L74.1878 7.58426L74.3002 5.07397Z" fill="#0A0A16"/>
<path d="M76.436 3.81905L75.1972 4.54691L75.0794 7.06033L76.3182 6.33247L76.436 3.81905Z" fill="#0A0A16"/>
<path d="M78.5664 2.56726L77.3277 3.29511L77.2152 5.8054L78.454 5.07754L78.5664 2.56726Z" fill="#0A0A16"/>
<path d="M80.7022 1.31233L79.4635 2.04019L79.3457 4.55361L80.5844 3.82576L80.7022 1.31233Z" fill="#0A0A16"/>
<path d="M82.8327 0.0605376L81.5939 0.788398L81.4815 3.29868L82.7202 2.57082L82.8327 0.0605376Z" fill="#0A0A16"/>
<path d="M98.9356 27.1974L45.0122 58.8812L46.0766 60.6928L100 29.009L98.9356 27.1974Z" fill="#9EE011"/>
<path d="M18.5468 77.2855C17.3081 78.0133 15.6144 77.4413 14.776 76.0145L0.464229 51.6569C-0.374134 50.2301 -0.0441402 48.469 1.18928 47.7443L22.985 34.9377L40.3426 64.4789L18.5468 77.2855Z" fill="#9EE011"/>
<path d="M73.2228 42.2983L71.9841 43.0261L71.8716 45.5364L73.105 44.8117L73.2228 42.2983Z" fill="#0A0A16"/>
<path d="M75.3533 41.0465L74.1145 41.7744L74.0021 44.2846L75.2408 43.5568L75.3533 41.0465Z" fill="#0A0A16"/>
<path d="M77.4891 39.7916L76.2503 40.5194L76.1325 43.0328L77.3713 42.305L77.4891 39.7916Z" fill="#0A0A16"/>
<path d="M79.6195 38.5398L78.3808 39.2676L78.2683 41.7779L79.5071 41.0501L79.6195 38.5398Z" fill="#0A0A16"/>
<path d="M81.7553 37.2848L80.5166 38.0127L80.3988 40.5261L81.6375 39.7983L81.7553 37.2848Z" fill="#0A0A16"/>
<path d="M83.8858 36.0331L82.647 36.7609L82.5346 39.2712L83.7733 38.5433L83.8858 36.0331Z" fill="#0A0A16"/>
<path d="M86.0216 34.7781L84.7828 35.506L84.665 38.0194L85.9038 37.2915L86.0216 34.7781Z" fill="#0A0A16"/>
<path d="M88.152 33.5263L86.9132 34.2542L86.8008 36.7645L88.0396 36.0366L88.152 33.5263Z" fill="#0A0A16"/>
<path d="M90.2825 32.2745L89.0437 33.0024L88.9313 35.5127L90.17 34.7848L90.2825 32.2745Z" fill="#0A0A16"/>
<path d="M92.4183 31.0196L91.1795 31.7475L91.0617 34.2609L92.3005 33.533L92.4183 31.0196Z" fill="#0A0A16"/>
<path d="M94.5487 29.7678L93.3099 30.4957L93.1975 33.006L94.4363 32.2781L94.5487 29.7678Z" fill="#0A0A16"/>
<path d="M96.6845 28.5129L95.4457 29.2407L95.3279 31.7542L96.5667 31.0263L96.6845 28.5129Z" fill="#0A0A16"/>
<path d="M98.8149 27.2611L97.5762 27.989L97.4637 30.4992L98.7025 29.7714L98.8149 27.2611Z" fill="#0A0A16"/>
<path d="M17.7038 75.7895C16.4703 76.5142 14.782 75.9391 13.9437 74.5123L1.36508 53.1045C0.526721 51.6777 0.851376 49.9198 2.07946 49.1982L22.6471 37.1132L38.2714 63.7046L17.7038 75.7895Z" fill="#9EE011"/>
<path d="M17.8439 73.1552L4.30133 50.1068L11.8465 47.0682L24.3591 68.3637L17.8439 73.1552Z" fill="#161628"/>
<path d="M17.5127 71.7969L5.32662 51.0572L8.96115 49.5902L20.6511 69.4856L17.5127 71.7969Z" fill="#BFBFBF"/>
<path d="M23.3746 67.4828L20.6511 69.4856L8.96115 49.5902L12.1148 48.3195L23.3746 67.4828Z" fill="#A0A0A0"/>
<path d="M4.64788 49.1196L21.8036 39.0394L22.4881 40.2044L12.2684 46.2092L4.64788 49.1196Z" fill="#0A0A16"/>
<path d="M19.0916 73.7017L36.2473 63.6214L35.5628 62.4565L25.343 68.4613L19.0916 73.7017Z" fill="#0A0A16"/>
<path d="M27.6955 57.8198C27.2307 57.0289 26.2133 56.7641 25.423 57.2285C24.6327 57.6928 24.3688 58.7105 24.8335 59.5014L27.1006 63.3597C27.5653 64.1507 28.5827 64.4155 29.373 63.9511C30.1634 63.4868 30.4273 62.4691 29.9625 61.6781L27.6955 57.8198Z" fill="black"/>
<path d="M20.6002 45.7564C20.1355 44.9654 19.118 44.7007 18.3277 45.165C17.5374 45.6294 17.2735 46.647 17.7382 47.438L20.3632 51.9055C20.828 52.6965 21.8454 52.9612 22.6357 52.4969C23.426 52.0325 23.6899 51.0149 23.2252 50.2239L20.6002 45.7564Z" fill="black"/>
<path d="M25.4764 57.1971C25.2628 57.3226 25.1925 57.594 25.3181 57.8077L28.8159 63.7609C28.9415 63.9746 29.2129 64.0452 29.4265 63.9197C29.64 63.7942 29.7104 63.5228 29.5848 63.3091L26.0869 57.356C25.9613 57.1422 25.69 57.0716 25.4764 57.1971Z" fill="#9EE011"/>
<path d="M18.3865 45.1305C18.1729 45.256 18.1025 45.5274 18.2281 45.7412L22.0808 52.2981C22.2064 52.5119 22.4777 52.5825 22.6913 52.457C22.9049 52.3315 22.9753 52.0601 22.8497 51.8464L18.997 45.2894C18.8714 45.0756 18.6 45.005 18.3865 45.1305Z" fill="#9EE011"/>
<path d="M24.1662 51.8133C23.7015 51.0223 22.684 50.7575 21.8937 51.2219C21.1034 51.6863 20.8395 52.7039 21.3043 53.4949L23.9292 57.9624C24.394 58.7533 25.4114 59.0181 26.2017 58.5537C26.992 58.0894 27.2559 57.0717 26.7912 56.2808L24.1662 51.8133Z" fill="black"/>
<path d="M4.5402 41.4549C4.12372 41.6996 3.98829 42.2392 4.23007 42.6507L6.83307 47.0808C7.07799 47.4977 7.61753 47.6335 8.02867 47.392C8.44515 47.1472 8.58058 46.6076 8.33881 46.1961L5.7358 41.766C5.49088 41.3492 4.95134 41.2133 4.5402 41.4549Z" fill="#161628"/>
<path d="M22.1207 71.3755C21.7042 71.6202 21.5688 72.1599 21.8106 72.5713L24.4136 77.0015C24.6585 77.4183 25.198 77.5542 25.6092 77.3126C26.0256 77.0679 26.1611 76.5282 25.9193 76.1167L23.3163 71.6866C23.0714 71.2698 22.5318 71.1339 22.1207 71.3755Z" fill="#161628"/>
<path d="M3.24664 55.4999C2.88889 55.7101 2.76258 56.1797 2.9761 56.5431L11.7365 71.4527C11.9469 71.8107 12.4164 71.9374 12.7795 71.7241C13.1372 71.5139 13.2635 71.0443 13.05 70.6809L4.28961 55.7713C4.07923 55.4133 3.60972 55.2866 3.24664 55.4999Z" fill="#0A0A16"/>
<path d="M32.5248 46.406C32.1563 46.6225 32.1126 47.2448 32.4297 47.7846L33.4565 49.532C33.7736 50.0718 34.3386 50.3365 34.707 50.12L54.3285 37.2682L53.3018 35.5208L32.5248 46.406Z" fill="#0A0A16"/>
<path d="M87.5663 16.2218C89.1228 18.8586 89.1134 21.2508 87.8942 23.6134C87.171 25.0232 85.86 25.7504 84.3578 26.1154C82.5639 26.5585 80.7822 26.2035 79.016 25.9113C77.1935 25.6091 75.4423 25.7826 73.7365 26.4613C73.4689 26.5683 73.2107 26.6912 72.9463 26.8035C72.3225 27.0621 72.3065 27.0715 72.65 27.6317C73.229 28.5927 73.1676 29.5274 72.5309 30.4119C71.9683 31.2025 71.3731 31.962 70.7662 32.714C69.8619 33.8277 68.9428 34.9284 68.0152 36.027C67.077 37.1318 66.2863 38.3656 65.1889 39.3339C64.3954 40.0373 63.4604 40.5364 62.5216 40.9802C61.3247 41.5469 60.0244 41.7789 58.6975 41.66C56.4237 41.4576 54.4616 40.612 52.9282 38.8458C51.1025 36.7411 50.4377 34.3137 50.928 31.603C51.3111 29.48 52.4538 27.8309 54.1751 26.4817C55.7198 25.2721 57.4811 24.7979 59.3272 24.468C62.1416 23.9646 64.961 23.4942 67.7682 22.9662C68.7004 22.7923 70.1258 23.1769 70.5789 24.2046C70.8486 24.8226 70.9105 24.7934 71.5063 24.4505C73.3525 23.3873 75.3167 22.6717 77.4602 22.5912C78.5708 22.5497 79.68 22.6528 80.788 22.656C81.5572 22.6569 82.3191 22.6334 83.0857 22.4345C83.7428 22.257 84.1109 21.8322 84.3123 21.2825C85.0955 19.2048 84.0767 16.9207 82.1868 16.0758C81.1847 15.6294 80.1916 15.8463 79.2179 16.1452C78.3285 16.4162 77.4795 16.7928 76.84 17.5137C76.7241 17.6465 76.5199 17.788 76.3343 17.6311C76.1783 17.4999 76.1789 17.3054 76.2879 17.112C76.8757 15.9974 77.6732 15.0687 78.6576 14.2747C79.6237 13.4985 80.696 13.0985 81.8992 13.0314C83.3574 12.9582 84.6556 13.4318 85.8047 14.3239C86.5844 14.9297 87.3149 15.586 87.5579 16.2196L87.5663 16.2218ZM55.0074 35.8198C55.6695 37.5946 58.458 37.9762 59.8802 37.1693C61.4733 36.262 62.3137 33.7194 61.2766 32.0643C60.2184 30.3856 57.9177 29.6239 56.0715 30.8094C54.3374 31.9289 53.8676 33.8799 55.0074 35.8198ZM69.0031 27.4885C68.4251 26.2969 66.8869 25.9283 65.758 26.5987C64.5896 27.2996 64.0954 28.6468 64.9975 30.0721C65.6817 31.151 67.2244 31.3804 68.1965 30.7733C69.2754 30.1034 69.8255 28.6803 69 27.4831L69.0031 27.4885Z" fill="#0A0A16"/>
</svg>
