<svg xmlns="http://www.w3.org/2000/svg" width="50" height="96" viewBox="0 0 50 96" fill="none">
<path d="M19.555 62.5864C19.0778 62.4576 18.5856 62.3927 18.0914 62.3935C13.598 62.3924 9.96607 67.7328 9.96759 74.3194C9.96911 80.906 13.6035 86.2609 18.0969 86.262C18.5911 86.2629 19.0832 86.1983 19.5604 86.0697L19.555 62.5864Z" fill="#4A4A4A"/>
<path d="M30.4034 62.5885C30.9056 62.4543 31.424 62.3897 31.9439 62.3963C36.4373 62.3973 40.0717 67.7394 40.0732 74.326C40.0747 80.9126 36.4427 86.2658 31.9494 86.2648C31.451 86.2655 30.9546 86.2006 30.473 86.0719L30.4034 62.5885Z" fill="#4A4A4A"/>
<path d="M10.1749 21.9479L9.60969 20.3813L20.9326 19.0358L21.5107 20.6024L10.1749 21.9479Z" fill="#4E555D"/>
<path d="M0.0326108 23.3209C-0.0401184 23.0125 0.0140633 22.6879 0.182986 22.42C0.351908 22.152 0.621409 21.9632 0.930954 21.896L9.28816 20.0233C9.18946 19.7393 9.01113 19.4897 8.77447 19.3042C8.35976 19.0582 7.85953 19.002 7.40075 19.1498L1.88067 20.5609C1.77316 20.608 1.64795 20.5868 1.56174 20.5071C1.47554 20.4274 1.44472 20.3042 1.48323 20.1933C1.52175 20.0825 1.62229 20.0049 1.73932 19.9959L7.2594 18.572C7.78827 18.38 8.37343 18.4179 8.87335 18.6765C9.37327 18.9351 9.74243 19.3909 9.89154 19.9336C10.4249 19.9603 10.8758 20.3379 10.9958 20.8583C11.0699 21.1663 11.0143 21.4913 10.842 21.757C10.6743 22.0251 10.4061 22.2146 10.0975 22.2833L1.44502 24.22C1.13854 24.2888 0.81725 24.2325 0.5522 24.0638C0.287149 23.8951 0.100171 23.6278 0.0326108 23.3209Z" fill="#27363F"/>
<path d="M39.7792 21.9535L40.3822 20.3872L28.3397 19.0363L27.7367 20.6025L39.7792 21.9535Z" fill="#4E555D"/>
<path d="M49.9739 23.3325C50.1094 22.6884 49.7037 22.0542 49.062 21.9071L40.7039 20.0306C40.8025 19.7467 40.9807 19.4971 41.2173 19.3117C41.6319 19.066 42.1321 19.01 42.591 19.158L48.1117 20.5716C48.1867 20.5951 48.268 20.5863 48.3362 20.5473C48.4044 20.5084 48.4533 20.4428 48.4711 20.3662C48.4946 20.2913 48.4857 20.2099 48.4467 20.1417C48.4078 20.0735 48.3421 20.0246 48.2656 20.0067L42.732 18.5802C42.2111 18.4088 41.643 18.457 41.1585 18.7137C40.6741 18.9704 40.3153 19.4134 40.1647 19.9406C39.6331 19.9713 39.1845 20.3468 39.0609 20.8648C38.9869 21.1728 39.0427 21.4978 39.2151 21.7636C39.3829 22.0317 39.6512 22.2214 39.9599 22.2902L48.6132 24.2309C49.2326 24.3362 49.8275 23.9435 49.9739 23.3325Z" fill="#27363F"/>
<path d="M27.1711 18.3952L27.1675 2.56422C27.2328 1.67159 26.7936 0.817107 26.0296 0.350591C25.2656 -0.115925 24.3051 -0.116146 23.5413 0.350018C22.7775 0.816182 22.3387 1.67046 22.4045 2.56312L22.4081 18.3941C22.5001 19.6418 23.5392 20.6075 24.7901 20.6078C26.041 20.6081 27.0797 19.6429 27.1711 18.3952Z" fill="#00212A"/>
<path d="M28.3153 24.2512L28.3116 8.42023C28.1986 6.55622 26.654 5.10183 24.7868 5.1014C22.9196 5.10097 21.3756 6.55465 21.2635 8.4186L21.2671 24.2496C21.3801 26.1136 22.9247 27.568 24.7919 27.5684C26.6591 27.5689 28.2031 26.1152 28.3153 24.2512V24.2512Z" fill="#9EE011"/>
<path d="M27.1724 24.2513L27.1687 8.42029C27.0768 7.1726 26.0377 6.20689 24.7868 6.2066C23.5358 6.20631 22.4972 7.17154 22.4058 8.4192L22.4094 24.2502C22.5014 25.4979 23.5405 26.4636 24.7914 26.4639C26.0423 26.4642 27.081 25.499 27.1724 24.2513Z" fill="#9EE011"/>
<rect width="15.4571" height="31.0457" transform="matrix(1 0.000230218 0.000230195 1 17.4434 22.6445)" fill="#9EE011"/>
<path d="M29.1282 91.2964L29.1256 80.1775C29.125 77.7878 27.1876 75.8502 24.7981 75.8496C22.4087 75.8491 20.4721 77.7858 20.4727 80.1755L20.4752 91.2945C20.4758 93.6841 22.4133 95.6218 24.8027 95.6223C27.1921 95.6229 29.1287 93.6861 29.1282 91.2964Z" fill="#9EE011"/>
<path d="M27.7276 91.2967L27.725 80.1778C27.7246 78.561 26.4138 77.2501 24.7972 77.2497C23.1806 77.2493 21.8704 78.5597 21.8708 80.1764L21.8734 91.2953C21.8737 92.9121 23.1845 94.223 24.8011 94.2234C26.4177 94.2238 27.7279 92.9134 27.7276 91.2967Z" fill="#4A4A4A"/>
<path d="M26.7133 93.186V93.186C26.7132 92.9166 26.4947 92.6981 26.2253 92.698L23.4908 92.6974C23.2213 92.6973 23.003 92.9157 23.003 93.1852V93.1852C23.0031 93.4546 23.2216 93.6731 23.491 93.6732L26.2255 93.6738C26.3549 93.6738 26.479 93.6225 26.5705 93.531C26.6619 93.4395 26.7133 93.3154 26.7133 93.186Z" fill="#EDEE9B"/>
<path d="M25.0023 25.9454C29.9521 25.7895 34.8948 26.4367 39.6383 27.8619C37.3258 20.8254 31.6381 19.0137 25.0007 19.0122C18.3634 19.0106 12.6765 20.8197 10.3673 27.8551C15.1104 26.4337 20.0526 25.7888 25.0023 25.9454Z" fill="#202D04"/>
<path d="M25.0028 19.012C18.7763 19.0106 13.4489 20.64 10.8826 26.6226C15.4742 25.3293 20.2351 24.7374 25.0042 24.8668C29.7732 24.739 34.5345 25.3331 39.1266 26.6291C36.6089 20.594 31.2293 19.0135 25.0028 19.012Z" fill="#9EE011"/>
<path d="M25.0025 22.9793C21.982 22.9786 19.5329 20.5292 19.5322 17.5085C19.5315 14.504 21.9833 13.3619 25.0003 13.3626C28.0173 13.3633 30.4568 14.5066 30.4575 17.511C30.4582 20.5267 28.018 22.9729 25.0025 22.9793Z" fill="#757575"/>
<path d="M20.1348 17.3662C21.4973 17.9989 23.0077 18.2436 24.4999 18.0734L25.5141 18.0736C27.0064 18.2446 28.5167 18.0006 29.8789 17.3685L29.879 17.5097C29.9717 19.3055 29.0666 21.0057 27.5254 21.9309C25.9841 22.8562 24.0578 22.8558 22.5161 21.9298C20.9744 21.0038 20.0686 19.3032 20.1605 17.5075L20.1348 17.3662Z" fill="#202D04"/>
<path d="M25.0005 13.3625C22.5484 13.362 20.4688 14.1062 19.776 16.0191C20.4696 17.5985 22.5494 17.4706 25.0015 17.4711C27.4536 17.4717 29.5205 17.6006 30.2134 16.0215C29.5197 14.1083 27.4526 13.3631 25.0005 13.3625Z" fill="#4A4A4A"/>
<path d="M20.4428 15.9806C21.2128 14.3245 23.3181 13.9655 24.9999 13.9659C26.6817 13.9663 28.7744 14.3263 29.5451 15.9827C28.9933 16.83 27.6196 16.881 25.5013 16.8677L24.4999 16.8675C22.3688 16.8798 20.9951 16.8282 20.4428 15.9806Z" fill="white"/>
<rect width="18.1275" height="35.9118" rx="7.59" transform="matrix(1 0.000230218 0.000230195 1 15.8574 53.5596)" fill="#303D45"/>
<rect width="15.9707" height="32.8176" rx="7.59" transform="matrix(1 0.000230218 0.000230195 1 16.9229 54.5244)" fill="url(#paint0_linear_1260_1713)"/>
<path d="M31.9452 68.3422L31.9442 64.1437C32.0441 60.1847 28.9294 56.8861 24.9714 56.7594C21.0186 56.8912 17.913 60.1862 18.0148 64.1405L18.0158 68.339L31.9452 68.3422Z" fill="#303D45"/>
<path d="M34.7383 42.1247C35.7909 41.8531 36.8952 41.8534 37.9479 42.1254C39.2318 42.5237 40.0153 44.1674 39.5921 46.4142L35.6026 59.8818C35.6026 59.8818 33.627 66.2112 24.7943 66.2092C15.9616 66.2071 13.9703 59.8768 13.9703 59.8768L10.0002 46.3817C9.56316 44.1347 10.3844 42.5299 11.6425 42.0937C12.6903 41.8198 13.7912 41.8201 14.8392 42.0944L34.7383 42.1247Z" fill="#4A4A4A"/>
<path d="M2.76829 27.4031L3.01169 25.1562L2.27939 22.8578C2.27939 22.8578 1.73989 21.5738 2.74117 21.1631L7.09307 20.137C7.09307 20.137 7.83765 19.9702 8.06897 21.0103L8.62147 23.0005C8.62147 23.0005 9.35322 22.8723 9.45615 23.8353C9.55907 24.7982 8.01857 25.1189 8.01857 25.1189L6.88888 25.4139C6.88888 25.4139 6.09303 25.9145 5.88809 27.9816L2.76829 27.4031Z" fill="#FFC27C"/>
<path d="M47.1884 27.4133L46.944 25.1663L47.6752 22.8682C47.6752 22.8682 48.2141 21.5844 47.2127 21.1733L42.8603 20.1452C42.8603 20.1452 42.1157 19.9781 41.8848 21.018L41.3204 23.008C41.3204 23.008 40.6014 22.8794 40.4989 23.8424C40.3965 24.8053 41.9371 25.1266 41.9371 25.1266L43.0669 25.4222C43.0669 25.4222 43.863 25.9231 44.0689 27.9903L47.1884 27.4133Z" fill="#FFC27C"/>
<path d="M47.6752 26.5013L43.4901 27.168C43.4926 37.8118 36.1756 41.1741 32.7352 42.1748C30.3755 40.7903 27.66 40.1331 24.9291 40.2856C22.2076 40.1188 19.4976 40.7568 17.1368 42.1198C13.6959 41.1176 6.39026 37.7519 6.38781 27.1081L2.20241 26.4395C2.20241 26.4395 0.921432 38.7522 15.2768 48.6547L17.2567 61.0195C17.2567 61.0195 19.1317 63.5878 25.1528 63.5892C31.1739 63.5906 32.6368 61.023 32.6368 61.023L34.611 48.6591C48.9233 38.8146 47.6752 26.5013 47.6752 26.5013Z" fill="#9EE011"/>
<path d="M43.4914 27.1696L47.6765 26.5029C47.715 27.1101 47.7152 27.719 47.6769 28.3261L43.4918 29.057C43.4917 28.4578 43.4915 27.8287 43.4914 27.1696Z" fill="#202D04"/>
<path d="M2.18357 25.0322L6.36822 26.4488C6.40683 27.056 6.40655 27.5175 6.36822 28.1246L2.1831 27.1155C2.1831 25.2281 2.18372 25.6913 2.18357 25.0322Z" fill="#202D04"/>
<ellipse cx="7.81844" cy="8.71796" rx="7.81844" ry="8.71796" transform="matrix(1 0.000230218 0.000230195 1 17.1611 31.2061)" fill="#161616"/>
<ellipse cx="4.68593" cy="5.22564" rx="4.68593" ry="5.22564" transform="matrix(1 0.000230218 0.000230195 1 20.2949 32.4268)" fill="#232323"/>
<path d="M24.9823 46.102C20.9128 45.8969 17.6205 42.714 17.2777 38.6533C17.2143 39.0783 17.1844 39.5076 17.1881 39.9373C17.1892 44.752 20.6949 48.656 25.0085 48.657C29.3222 48.658 32.8261 44.807 32.825 39.9409C32.8218 39.5114 32.7917 39.0826 32.7348 38.6569C32.391 42.736 29.0716 45.9238 24.9823 46.102Z" fill="#0C0C0C"/>
<rect width="24.4567" height="24.5618" rx="3.5904" transform="matrix(1 0.000230218 0.000230195 1 12.5605 66.2061)" fill="url(#paint1_linear_1260_1713)"/>
<rect width="24.4567" height="24.5618" rx="3.5904" transform="matrix(1 0.000230218 0.000230195 1 12.5605 66.2061)" fill="url(#paint2_linear_1260_1713)"/>
<g style="mix-blend-mode:multiply" opacity="0.5">
<rect width="24.4567" height="24.5618" rx="3.5904" transform="matrix(1 0.000230218 0.000230195 1 12.5586 66.2051)" fill="url(#paint3_linear_1260_1713)"/>
</g>
<defs>
<linearGradient id="paint0_linear_1260_1713" x1="1.46245" y1="5.36688" x2="1.46245" y2="32.2269" gradientUnits="userSpaceOnUse">
<stop stop-color="#7B7E83"/>
<stop offset="0.2" stop-color="#73777C"/>
<stop offset="0.52" stop-color="#5D646A"/>
<stop offset="0.91" stop-color="#39454D"/>
<stop offset="1" stop-color="#303D45"/>
</linearGradient>
<linearGradient id="paint1_linear_1260_1713" x1="0" y1="24.5618" x2="24.4439" y2="24.5618" gradientUnits="userSpaceOnUse">
<stop stop-color="#B1B1B1"/>
<stop offset="0.21" stop-color="white"/>
<stop offset="0.52" stop-color="white"/>
<stop offset="0.78" stop-color="white"/>
<stop offset="0.96" stop-color="#C2C2C2"/>
</linearGradient>
<linearGradient id="paint2_linear_1260_1713" x1="24.4567" y1="24.5746" x2="24.4567" y2="0" gradientUnits="userSpaceOnUse">
<stop stop-color="#B1B1B1"/>
<stop offset="0.21" stop-color="white"/>
<stop offset="0.52" stop-color="white"/>
<stop offset="0.78" stop-color="white"/>
<stop offset="0.96" stop-color="#C2C2C2"/>
</linearGradient>
<linearGradient id="paint3_linear_1260_1713" x1="24.4567" y1="24.5746" x2="24.4567" y2="0" gradientUnits="userSpaceOnUse">
<stop stop-color="#B1B1B1"/>
<stop offset="0.21" stop-color="white"/>
<stop offset="0.52" stop-color="white"/>
<stop offset="0.78" stop-color="white"/>
<stop offset="0.96" stop-color="#C2C2C2"/>
</linearGradient>
</defs>
</svg>
